# AST/ASF file generated using VICON BodyLanguage
# -----------------------------------------------
:version 1.10
:name VICON
:units
  mass 1.0
  length 0.45
  angle deg
:documentation
   .ast/.asf automatically generated from VICON data using
   VICON BodyBuilder and BodyLanguage model FoxedUp or BRILLIANT.MOD
:root
   order TX TY TZ RX RY RZ
   axis XYZ
   position 0 0 0  
   orientation 0 0 0 
:bonedata
  begin
     id 1 
     name lhipjoint
     direction 0.64773 -0.699417 0.302095 
     length 2.48597 
     axis 0 0 0  XYZ
  end
  begin
     id 2 
     name lfemur
     direction 0.34202 -0.939693 0  
     length 6.71947  
     axis 0 0 20  XYZ
    dof rx ry rz
    limits (-160.0 20.0)
           (-70.0 70.0)
           (-60.0 70.0)
  end
  begin
     id 3 
     name ltibia
     direction 0.34202 -0.939693 0   
     length 8.08777   
     axis 0 0 20   XYZ
    dof rx
    limits (-10.0 170.0)
  end
  begin
     id 4 
     name lfoot
     direction 0.0808503 -0.222134 0.971658   
     length 2.08264   
     axis -90 7.62852e-016 20   XYZ
    dof rx rz
    limits (-45.0 90.0)
           (-70.0 20.0)
  end
  begin
     id 5 
     name ltoes
     direction 1.53502e-011 -4.22007e-011 1   
     length 1.04662   
     axis -90 7.62852e-016 20   XYZ
    dof rx
    limits (-90.0 20.0)
  end
  begin
     id 6 
     name rhipjoint
     direction -0.610924 -0.726792 0.313919   
     length 2.39233  
     axis 0 0 0  XYZ 
  end
  begin
     id 7 
     name rfemur
     direction -0.34202 -0.939693 0   
     length 6.96955   
     axis 0 0 -20   XYZ
    dof rx ry rz
    limits (-160.0 20.0)
           (-70.0 70.0)
           (-70.0 60.0)
  end
  begin
     id 8 
     name rtibia
     direction -0.34202 -0.939693 0   
     length 8.19584   
     axis 0 0 -20   XYZ
    dof rx
    limits (-10.0 170.0)
 end
 begin
     id 9 
     name rfoot
     direction -0.077777 -0.213691 0.9738   
     length 2.07539  
     axis -90 -7.62852e-016 -20   XYZ
    dof rx rz
    limits (-45.0 90.0)
           (-20.0 70.0)
  end
  begin
     id 10 
     name rtoes
     direction -1.53558e-011 -4.22006e-011 1   
     length 1.04381   
     axis -90 -7.62852e-016 -20   XYZ
    dof rx
    limits (-90.0 20.0)
  end
  begin
     id 11 
     name lowerback
     direction -0.00971646 0.996074 0.0879841   
     length 1.67643   
     axis 0 0 0   XYZ
    dof rx ry rz
    limits (-20.0 45.0)
           (-30.0 30.0)
           (-30.0 30.0)
  end
  begin
     id 12 
     name upperback
     direction 0.0127391 0.991676 0.128127   
     length 1.63741   
     axis 0 0 0   XYZ
    dof rx ry rz
    limits (-20.0 45.0)
           (-30.0 30.0)
           (-30.0 30.0)
  end
  begin
     id 13 
     name thorax
     direction 0.0167583 0.996049 0.0872067   
     length 1.65931   
     axis 0 0 0   XYZ
    dof rx ry rz
    limits (-20.0 45.0)
           (-30.0 30.0)
           (-30.0 30.0)
  end
  begin
     id 14 
     name lowerneck
     direction -0.0317829 0.998312 0.0486079   
     length 1.79021   
     axis 0 0 0   XYZ
    dof rx ry rz
    limits (-20.0 45.0)
           (-30.0 30.0)
           (-30.0 30.0)
  end
  begin
     id 15 
     name upperneck
     direction 0.0896851 0.972452 -0.215159   
     length 1.78797   
     axis 0 0 0   XYZ
    dof rx ry rz
    limits (-20.0 45.0)
           (-30.0 30.0)
           (-30.0 30.0)
  end
  begin
     id 16
     name head
     direction 0.0310949 0.996503 -0.0775582  
     length 1.81549  
     axis 0 0 0   XYZ
    dof rx ry rz
    limits (-20.0 45.0)
           (-30.0 30.0)
           (-30.0 30.0)
  end
  begin
     id 17 
     name lclavicle
     direction 0.853638 0.502051 -0.138733  
     length 3.31627  
     axis 0 0 0   XYZ
    dof ry rz
    limits (-20.0 10.0)
           (0.0 20.0)
  end
  begin
     id 18 
     name lhumerus
     direction 1 -4.48962e-011 -1.41788e-018   
     length 5.54893   
     axis 180 -30 -90   XYZ
    dof rx ry rz
    limits (-60.0 90.0)
           (-90.0 90.0)
           (-90.0 90.0)
  end
  begin
     id 19
     name lradius
     direction 1 -4.48962e-011 -4.95754e-027   
     length 3.02898   
     axis 180 -30 -90   XYZ
    dof rx
    limits (-10.0 170.0)
  end
  begin
     id 20
     name lwrist
     direction 1 -4.48952e-011 -1.03764e-026   
     length 1.51449   
     axis 9.09556e-015 90 90   XYZ
    dof ry
    limits (-180.0 0.0)
 end
  begin
     id 21 
     name lhand
     direction 1 -4.4902e-011 -2.07528e-026   
     length 0.640951   
     axis 1.3242e-014 90 90   XYZ
    dof rx rz
    limits (-90.0 90.0)
           (-45.0 45.0)
  end
  begin
     id 22 
     name lfingers
     direction 1 -4.49014e-011 -4.15056e-026   
     length 0.516751   
     axis 2.64841e-014 90 90   XYZ
    dof rx
    limits (0.0 90.0)
  end
  begin
     id 23
     name lthumb
     direction 0.707107 -6.35008e-011 0.707107   
     length 0.741954   
     axis -90 45 2.85299e-015   XYZ
    dof rx rz
    limits (-45.0 45.0)
           (-45.0 45.0)
  end
  begin
     id 24 
     name rclavicle
     direction -0.888531 0.455324 -0.0565039   
     length 3.20126  
     axis 0 0 0   XYZ 
    dof ry rz
    limits (-10.0 20.0)
           (-20.0 0.0)
  end
  begin
     id 25 
     name rhumerus
     direction -1 -4.48946e-011 -8.98298e-028  
     length 5.3519   
     axis 180 30 90   XYZ
    dof rx ry rz
    limits (-90.0 60.0)
           (-90.0 90.0)
           (-90.0 90.0)
  end
  begin
     id 26 
     name rradius
     direction -1 -4.4899e-011 -3.18779e-027   
     length 3.02531   
     axis 180 30 90   XYZ
    dof rx
    limits (-10.0 170.0)
  end
  begin
     id 27 
     name rwrist
     direction -1 -4.4897e-011 -1.03764e-026   
     length 1.51266   
     axis 9.09556e-015 -90 -90   XYZ
    dof ry
    limits (-180.0 0.0)
  end
  begin
     id 28
     name rhand
     direction -1 -4.48941e-011 -2.07528e-026   
     length 0.78389   
     axis 1.3242e-014 -90 -90   XYZ
    dof rx rz
    limits (-90.0 90.0)
           (-45.0 45.0)
  end
  begin
     id 29
     name rfingers
     direction -1 -4.49012e-011 -4.15056e-026   
     length 0.631992   
     axis 2.64841e-014 -90 -90   XYZ
    dof rx
    limits (0.0 90.0)
  end
  begin
     id 30
     name rthumb
     direction -0.707107 -6.3496e-011 0.707107   
     length 0.907418   
     axis -90 -45 -2.85299e-015   XYZ
    dof rx rz
    limits (-45.0 45.0)
           (-45.0 45.0)
  end
:hierarchy
  begin
    root lhipjoint rhipjoint lowerback
    lhipjoint lfemur
    lfemur ltibia
    ltibia lfoot
    lfoot ltoes
    rhipjoint rfemur
    rfemur rtibia
    rtibia rfoot
    rfoot rtoes
    lowerback upperback
    upperback thorax
    thorax lowerneck lclavicle rclavicle
    lowerneck upperneck
    upperneck head
    lclavicle lhumerus
    lhumerus lradius
    lradius lwrist
    lwrist lhand lthumb
    lhand lfingers
    rclavicle rhumerus
    rhumerus rradius
    rradius rwrist
    rwrist rhand rthumb
    rhand rfingers
  end

#!OML:ASF E:\Style3\Style3.ASF
:FULLY-SPECIFIED
:DEGREES
1614
root -0.64603 17.2603 0.35576 -685.864 130.342 -711.194
lowerback 21.2358 2.58876 -6.68581
upperback -2.41032 1.30079 -3.62574
thorax -14.8786 0.990416 -0.798318
lowerneck -9.63436 -9.81746 -10.5882
upperneck -13.7715 -9.25784 27.9105
head -0.118254 -3.94665 10.2331
rclavicle 5.88403e-014 1.27222e-014
rhumerus -80.0409 55.9765 -95.3932
rradius 122.356
rwrist -81.2659
rhand 42.2689 7.32715
rfingers 7.12502
rthumb 64.2472 -1.05527
lclavicle 5.88403e-014 1.27222e-014
lhumerus -80.0531 -52.5614 90.642
lradius 127.884
lwrist 102.756
lhand 41.257 46.8163
lfingers 7.12502
lthumb 63.4286 56.4099
rfemur -36.9927 -19.1882 31.6772
rtibia 32.6564
rfoot -19.9716 -21.5065
rtoes -22.8635
lfemur -53.7647 -9.95612 -3.41222
ltibia 37.0984
lfoot -10.2083 -11.8861
ltoes -12.6901
1615
root -0.650927 17.2676 0.347767 -685.791 130.499 -711.166
lowerback 21.2478 2.50291 -6.45234
upperback -2.40409 1.25368 -3.54058
thorax -14.8701 0.952337 -0.815236
lowerneck -9.64206 -9.82184 -10.6343
upperneck -13.758 -9.25695 28.012
head -0.101114 -3.94402 10.2764
rclavicle -5.48646e-014 -1.59028e-015
rhumerus -79.4004 55.9025 -94.9245
rradius 122.924
rwrist -81.539
rhand 42.9923 7.5778
rfingers 7.12502
rthumb 64.8243 0.111194
lclavicle -5.48646e-014 -1.59028e-015
lhumerus -79.8045 -52.2476 90.3148
lradius 128.739
lwrist 102.856
lhand 40.2765 43.5293
lfingers 7.12502
lthumb 62.624 54.2239
rfemur -37.0255 -19.1987 31.7449
rtibia 32.6148
rfoot -19.989 -21.6084
rtoes -22.5685
lfemur -53.8581 -10.0656 -3.29385
ltibia 37.0243
lfoot -10.0207 -11.9798
ltoes -10.9078
1616
root -0.649688 17.272 0.337994 -685.805 130.625 -711.245
lowerback 21.2039 2.42994 -6.32309
upperback -2.3954 1.20129 -3.47184
thorax -14.8286 0.920109 -0.788269
lowerneck -9.60434 -9.80098 -10.5535
upperneck -13.7802 -9.22419 28.0422
head -0.122416 -3.93487 10.2779
rclavicle -1.20861e-013 -3.81667e-014
rhumerus -78.7337 55.828 -94.4251
rradius 123.129
rwrist -81.7061
rhand 43.7827 8.20947
rfingers 7.12502
rthumb 65.4467 1.79435
lclavicle -1.20861e-013 -3.81667e-014
lhumerus -79.6507 -52.0628 90.0106
lradius 129.289
lwrist 102.132
lhand 41.9822 44.3021
lfingers 7.12502
lthumb 64.0166 53.0357
rfemur -37.012 -19.1786 31.7096
rtibia 32.5717
rfoot -20.0472 -21.6965
rtoes -22.1749
lfemur -53.8618 -10.1367 -3.32498
ltibia 36.9041
lfoot -10.0623 -11.9913
ltoes -11.0678
1617
root -0.64912 17.2729 0.328042 -685.91 130.713 -711.418
lowerback 21.1804 2.37921 -6.27319
upperback -2.40812 1.15459 -3.40196
thorax -14.8278 0.89777 -0.719514
lowerneck -9.39815 -9.76135 -10.3597
upperneck -13.9073 -9.17158 27.9273
head -0.226026 -3.93978 10.2195
rclavicle 1.19271e-014 1.59028e-015
rhumerus -78.2133 55.7943 -93.9123
rradius 123.039
rwrist -81.9001
rhand 44.8281 8.79425
rfingers 7.12502
rthumb 66.2555 3.85677
lclavicle 1.19271e-014 1.59028e-015
lhumerus -79.4499 -51.9136 89.646
lradius 129.719
lwrist 101.476
lhand 44.032 48.8689
lfingers 7.12502
lthumb 65.6412 54.9408
rfemur -36.9939 -19.1315 31.569
rtibia 32.5445
rfoot -20.1229 -21.8264
rtoes -21.9212
lfemur -53.7933 -10.2135 -3.4619
ltibia 36.7356
lfoot -10.1455 -11.9551
ltoes -12.2166
1618
root -0.652514 17.2662 0.317315 -686.032 130.739 -711.589
lowerback 21.2438 2.3522 -6.25477
upperback -2.45551 1.12166 -3.31854
thorax -14.9219 0.885828 -0.627613
lowerneck -9.32403 -9.72574 -10.2987
upperneck -13.8977 -9.13685 27.8775
head -0.25099 -3.93335 10.197
rclavicle 4.92986e-014 -1.145e-013
rhumerus -77.9441 55.8024 -93.5478
rradius 122.654
rwrist -81.9896
rhand 45.6815 8.79622
rfingers 7.12502
rthumb 66.9025 5.14366
lclavicle 4.92986e-014 -1.145e-013
lhumerus -79.3767 -51.7599 89.4617
lradius 129.964
lwrist 100.985
lhand 44.4434 52.8468
lfingers 7.12502
lthumb 65.9599 58.34
rfemur -36.9644 -19.115 31.4018
rtibia 32.4917
rfoot -20.1046 -21.9051
rtoes -21.7977
lfemur -53.6739 -10.2493 -3.66243
ltibia 36.5634
lfoot -10.2219 -11.8708
ltoes -13.8817
